<?xml version="1.0" standalone="no"?><!DOCTYPE svg PUBLIC "-//W3C//DTD SVG 1.1//EN" "http://www.w3.org/Graphics/SVG/1.1/DTD/svg11.dtd"><svg t="1552292724895" class="icon" style="" viewBox="0 0 1024 1024" version="1.1" xmlns="http://www.w3.org/2000/svg" p-id="6055" xmlns:xlink="http://www.w3.org/1999/xlink" width="200" height="200"><defs><style type="text/css"></style></defs><path d="M845.333331 840.702451C845.333331 871.240525 821.453331 896 792 896L125.333333 896 218.666667 439.795226C218.666667 409.257155 242.546667 384.497678 272 384.497678L885.333331 384.497678C914.786669 384.497678 938.666669 409.257155 938.666669 439.795226L845.333331 840.702451 845.333331 840.702451ZM232 343.024516 832 343.024516 832 288.694675C832 258.156604 808.12 233.397127 778.666669 233.397127L458.666667 233.397127 458.666667 183.297548C458.666667 152.759477 434.786667 128 405.333333 128L138.666667 128C109.213333 128 85.333333 152.759477 85.333333 183.297548L85.333333 840.716275 178.666667 398.335889C178.666667 367.783994 202.546667 343.024516 232 343.024516L232 343.024516Z" p-id="6056" fill="#2c2c2c"></path></svg>